<svg width="800" height="800" viewBox="0 0 800 800" fill="none" xmlns="http://www.w3.org/2000/svg">
<path d="M487.606 385.05C468.524 389.328 450.845 385.414 435.408 381.792C425.606 379.487 424.946 372.354 431.823 365.079C445.139 351.027 453.295 332.043 453.295 311.169C453.295 267.822 418.177 232.704 374.827 232.704C343.417 232.704 316.301 251.167 303.753 277.836C299.475 286.952 290.074 293.208 280.166 291.554C260.783 288.262 246.95 289.294 246.95 308.088C246.95 327.034 270.613 345.884 299.373 359.446C308.437 363.726 308.552 369.724 300.213 375.361C271.819 394.417 253.129 426.827 253.129 463.588C253.129 522.261 295.912 557.24 354.461 561.018C475.986 568.86 525.101 549.584 550.112 479.674C603.524 330.38 515.271 378.853 487.606 385.05Z" fill="#FFD700"/>
<path d="M786.423 365.211H760.423C758.953 365.211 751.552 364.754 750.393 355.721C729.835 197.861 605.2 72.7926 447.292 51.5784C435.999 50.0826 434.783 42.5883 434.783 39.4365V13.5725C434.783 6.08909 428.693 -0.000244141 421.208 -0.000244141H378.784C371.3 -0.000244141 365.209 6.08909 365.209 13.5725V39.43C365.209 45.6817 360.096 50.5739 352.485 51.6C269.42 62.7548 192.757 103.454 136.622 166.198C89.0476 219.331 58.9798 284.647 49.6737 355.078C48.6887 362.548 43.6601 365.211 39.2787 365.211H13.5727C6.08934 365.211 0 371.3 0 378.786V421.207C0 428.691 6.08934 434.78 13.5727 434.78H38.8739C43.3029 434.78 48.351 437.482 49.2515 445.073C58.6875 522.41 94.2797 595.553 149.467 651.033C204.635 706.493 277.549 742.466 354.786 752.326C359.968 752.986 365.213 756.727 365.213 762.596V786.42C365.213 793.904 371.302 799.993 378.788 799.993H421.212C428.695 799.993 434.787 793.904 434.787 786.42V762.602C434.787 757.197 439.11 753.136 445.792 752.259C523.088 742.258 596 706.107 651.096 650.468C706.233 594.787 741.672 521.434 750.891 443.881C751.614 437.164 756.706 434.778 760.842 434.778H786.427C793.911 434.778 800 428.689 800 421.205V378.783C799.993 371.3 793.904 365.211 786.423 365.211ZM421.21 662.088H378.786C371.302 662.088 365.211 668.177 365.211 675.663V687.294C365.211 692.424 361.594 697.598 353.513 697.598C352.331 697.598 351.082 697.49 349.805 697.275C221.998 675.721 123.101 575.131 103.675 446.784C103.363 445.314 102.536 441.406 105.253 438.049C106.963 435.938 109.543 434.776 112.524 434.776H124.328C131.814 434.776 137.903 428.687 137.903 421.203V378.781C137.903 371.296 131.814 365.206 124.328 365.206H113.043C110.158 365.206 107.634 364.109 105.935 362.115C104.196 360.078 103.56 357.515 104.045 354.495C113.052 297.721 138.163 244.987 176.656 201.996C222.141 151.194 284.064 117.154 351.039 106.14L351.378 106.082C352.413 105.906 353.827 105.664 355.383 105.664C362.137 105.664 365.211 110.368 365.211 114.738V124.324C365.211 131.809 371.3 137.898 378.786 137.898H421.21C428.693 137.898 434.785 131.809 434.785 124.324V114.738C434.785 110.404 437.928 105.737 444.833 105.737C446.539 105.737 448.167 106.008 449.371 106.209C575.034 127.047 673.89 225.405 695.353 350.965C695.708 353.034 696.54 357.883 693.308 361.719C691.414 363.968 688.608 365.204 685.407 365.204H675.665C668.18 365.204 662.09 371.293 662.09 378.779V421.201C662.09 428.684 668.18 434.774 675.665 434.774H685.904C689.13 434.774 691.955 435.999 693.864 438.226C697.033 441.928 696.31 446.576 696.04 448.327C676.107 576.266 576.883 676.388 449.135 697.466C447.998 697.652 446.953 697.745 445.942 697.745C439.372 697.745 434.783 693.452 434.783 687.307V675.659C434.783 668.175 428.693 662.088 421.21 662.088Z" fill="#FFD700"/>
</svg>
